<?xml version="1.0" standalone="no"?><!DOCTYPE svg PUBLIC "-//W3C//DTD SVG 1.1//EN" "http://www.w3.org/Graphics/SVG/1.1/DTD/svg11.dtd"><svg t="1640503950300" class="icon" viewBox="0 0 1024 1024" version="1.1" xmlns="http://www.w3.org/2000/svg" p-id="9456" width="128" height="128" xmlns:xlink="http://www.w3.org/1999/xlink"><defs><style type="text/css"></style></defs><path d="M0 501.9648a512 501.9648 0 1 0 1024 0 512 501.9648 0 1 0-1024 0Z" fill="#F0F0F0" p-id="9457"></path><path d="M625.80736 723.968s179.85536 23.67488 219.46368 72.21248c9.91232 12.24704 18.69824 36.88448 26.50112 66.2528l-0.7168-2.62144C778.6496 948.9408 651.8784 1003.9296 512 1003.9296c-136.192 0-259.97312-52.14208-351.70304-137.17504 2.048-2.27328 3.23584-3.56352 3.19488-3.584 7.90528-29.98272 16.95744-55.0912 26.97216-67.4816 39.60832-48.5376 218.48064-71.59808 218.48064-71.59808l108.29824 28.52864z" fill="#FFFFFF" p-id="9458"></path><path d="M287.27296 452.75136c-2.72384-27.91424 12.61568-52.79744 34.65216-55.82848 22.03648-3.03104 42.0864 17.22368 45.17888 45.2608 2.72384 27.91424-12.63616 52.79744-34.65216 55.82848-22.15936 3.03104-42.33216-17.36704-45.17888-45.2608m144.1792 166.01088v144.40448h170.5984v-144.40448h-170.5984z m269.6192-120.75008c-22.03648-2.43712-36.88448-26.95168-33.05472-54.96832 3.70688-27.91424 24.51456-48.80384 46.42816-46.36672 22.016 2.41664 36.864 26.9312 33.03424 54.96832-3.82976 28.03712-24.49408 48.66048-46.40768 46.36672" fill="#EEDCB9" p-id="9459"></path><path d="M517.24288 217.55904s-181.32992 7.51616-181.32992 102.66624v192.94208c0 37.39648 61.6448 143.93344 116.98176 148.41856 27.8528 2.19136 64.1024 5.12 64.1024 5.12s36.51584-3.05152 64.12288-5.12c55.33696-4.608 116.36736-111.02208 116.36736-148.41856V325.2224c0.49152-94.65856-180.224-107.64288-180.224-107.64288" fill="#FEE1B9" p-id="9460"></path><path d="M628.40832 243.77344c-50.87232-22.09792-111.16544-26.33728-111.16544-26.33728h-0.24576c-7.90528 0.36864-180.96128 9.70752-180.96128 102.66624v192.96256c0 37.376 61.6448 143.91296 116.98176 148.39808 27.8528 2.19136 64.1024 5.12 64.1024 5.12s36.51584-3.05152 64.12288-5.12c55.33696-4.608 116.98176-111.02208 116.98176-148.39808v-187.86304c-0.24576-39.936-32.5632-65.41312-69.81632-81.42848" fill="#FCEFC7" p-id="9461"></path><path d="M406.7328 719.4624l95.29344 284.4672c5.07904 0.24576 10.15808 0.24576 15.21664 0.24576 4.7104 0 9.54368-0.12288 14.2336-0.24576l95.31392-284.4672-110.03904 22.1184-110.03904-22.1184z" fill="#E6E6E6" p-id="9462"></path><path d="M529.87904 803.57376l24.9856-24.51456-37.74464-37.13024-37.376 37.13024 25.00608 24.51456-31.06816 143.81056 43.43808 42.5984 43.45856-42.5984-30.72-143.81056z" fill="#333331" p-id="9463"></path><path d="M428.7488 697.63072l88.61696 43.97056 88.76032-43.8272 45.79328 26.43968-74.50624 104.36608-60.02688-86.71232-44.4416 86.58944-89.98912-104.36608 45.79328-26.46016z" fill="#FFFFFF" p-id="9464"></path><path d="M325.632 275.82464C264.6016 178.91328 471.06048 64.8192 584.0896 149.6064c94.94528 70.98368 170.82368 84.33664 173.30176 83.72224a183.64416 183.64416 0 0 1-41.6768 53.248c6.144 6.81984 11.20256 17.03936 13.824 32.07168 10.77248 61.89056-23.01952 115.89632-23.01952 115.89632h-17.32608l-17.38752-118.45632c-45.24032 22.97856-100.27008 32.52224-157.02016 32.52224-73.66656 0-132.5056-29.22496-159.60064-45.52704l-19.27168 131.46112h-17.32608s-33.792-54.00576-23.01952-115.9168c4.5056-25.8048 16.1792-37.41696 28.32384-42.1888z" fill="#333331" p-id="9465"></path></svg>