<svg data-v-6805eed4="" version="1.0" xmlns="http://www.w3.org/2000/svg" xmlns:xlink="http://www.w3.org/1999/xlink" width="100%" height="100%" viewBox="0 0 340.000000 250.000000" preserveAspectRatio="xMidYMid meet" color-interpolation-filters="sRGB" style="margin: auto;">   <g data-v-6805eed4="" fill="#333" class="icon-text-wrapper icon-svg-group iconsvg" transform="translate(82.14342498779297,57.669525146484375)"><g class="iconsvg-imagesvg" transform="translate(57.85657501220703,0)"><g><rect fill="#333" fill-opacity="0" stroke-width="2" x="0" y="0" width="60" height="69.28406466512702" class="image-rect"></rect> <svg x="0" y="0" width="60" height="69.28406466512702" filtersec="colorsb8298161381" class="image-svg-svg primary" style="overflow: visible;"><svg xmlns="http://www.w3.org/2000/svg" viewBox="0 0 86.5999984741211 100"><path fill="#4bcfff" opacity=".2" d="M0 25v50l43.3 25 43.3-25V25L43.3 0 0 25z"></path><path fill="#4bcfff" opacity=".8" d="M0 25l86.6 50-43.3 25L0 75V25z"></path><path fill="#4bcfff" opacity=".8" d="M43.3 50L0 75l43.3 25 43.3-25-43.3-25z"></path><path fill="#4bcfff" opacity=".3" d="M43.3 50l43.3-25L43.3 0 0 25l43.3 25z"></path><path fill="#4bcfff" opacity=".2" d="M43.3 0v50L0 25 43.3 0zM43.3 100V50L0 75l43.3 25z"></path><path fill="#fff" opacity=".3" d="M86.6 25l-43.3 75V50l43.3-25zM0 25l43.3 75L0 75V25z"></path></svg></svg> <!----></g></g> <g transform="translate(0,76.28406524658203)"><g data-gra="path-name" fill-rule="" class="tp-name iconsvg-namesvg" transform="translate(0,0)"><g transform="scale(1)"><g><path d="M3.96 3.42L3.96 3.42Q3.15 3.42 2.7 2.7L2.7 2.7Q2.25 1.89 2.75 1.13L2.75 1.13 13.99-16.61 4.09-15.88Q3.19-15.79 2.75-16.56L2.75-16.56Q2.52-16.92 2.5-17.3 2.48-17.68 2.65-18.04L2.65-18.04 12.69-36.95 15.3-35.55 6.52-19.04 16.7-19.8Q17.55-19.84 18.09-19.08L18.09-19.08Q18.54-18.27 18.04-17.5L18.04-17.5 6.75 0.32 19.84-0.36 16.06-11.29 18.86-12.24 23.27 0.49Q23.49 1.26 23.09 1.8L23.09 1.8Q22.68 2.38 21.96 2.48L21.96 2.48 4.05 3.42 3.96 3.42ZM40.99 3.92L40.99 3.92 27.58 3.92 27.58 0.99 39.55 0.99 39.55-32.76 19.8-32.76 19.8-35.73 40.99-35.73Q41.63-35.73 42.05-35.3 42.48-34.88 42.48-34.24L42.48-34.24 42.48 2.43Q42.48 3.06 42.05 3.49 41.63 3.92 40.99 3.92L40.99 3.92ZM80.46 3.87L80.46 3.87 59.63 3.87Q58.99 3.87 58.57 3.44 58.14 3.01 58.14 2.38L58.14 2.38 58.14-36.18 61.11-36.18 61.11 0.9 80.46 0.9 80.46 3.87ZM51.57-34.88L49.81 3.06 46.84 2.92 48.6-35.01 51.57-34.88ZM73.94-4.41L71.01-4.27 69.75-34.92 72.67-35.01 73.94-4.41ZM87.88 2.92L84.96 3.06 83.16-34.88 86.13-35.01 87.88 2.92ZM131.49-32.31L131.49-32.31 102.6-32.31 101.56-25.47 127.57-25.47Q128.25-25.47 128.7-24.93L128.7-24.93Q129.15-24.39 129.01-23.76L129.01-23.76 125.28 0.94 132.53 0.94 132.53 3.92 92.3 3.92 92.3 0.94 122.31 0.94 123.3-5.58 97.33-5.58Q96.66-5.58 96.21-6.12L96.21-6.12Q95.76-6.61 95.85-7.29L95.85-7.29 99.58-32.31 93.33-32.31 93.33-35.28 131.49-35.28 131.49-32.31ZM123.75-8.55L125.87-22.5 101.11-22.5 99.05-8.55 123.75-8.55ZM177.12-31.77L177.12-28.8 167.89-28.8 167.89-18.9 177.66-18.9 177.66-15.93 167.89-15.93 167.89-14.13 178.2 2.88 175.68 4.41 166.41-10.93 157.14 4.41 154.62 2.88 164.93-14.13 164.93-15.93 155.2-15.93 155.2-18.9 164.93-18.9 164.93-28.8 155.75-28.8 155.75-31.77 171.54-31.77 173.2-36.72 176-35.82 174.69-31.77 177.12-31.77ZM160.88-32.89L158.09-31.99 156.82-35.82 159.66-36.72 160.88-32.89ZM150.66 0.67L137.79 2.48 137.38-0.4 139.05-0.63 139.05-33.25 137.34-33.25 137.34-36.23 155.12-36.23 155.12-33.25 153.63-33.25 153.63-2.7 155.03-2.92 155.43 0 153.63 0.22 153.63 3.92 150.66 3.92 150.66 0.67ZM141.97-33.25L141.97-24.97 150.66-24.97 150.66-33.25 141.97-33.25ZM141.97-22L141.97-13.5 150.66-13.5 150.66-22 141.97-22ZM141.97-10.57L141.97-1.03 150.66-2.29 150.66-10.57 141.97-10.57Z" transform="translate(-2.486842155456543, 36.95000076293945)"></path></g> <!----> <!----> <!----> <!----> <!----> <!----> <!----></g></g> <g data-gra="path-slogan" fill-rule="" class="tp-slogan iconsvg-slogansvg" fill="#333" transform="translate(5.000007629394531,47.36000061035156)"><rect x="0" height="1" y="5.010000228881836" width="8.466575622558594"></rect> <rect height="1" y="5.010000228881836" width="8.466575622558594" x="157.24657440185547"></rect> <g transform="translate(11.466575622558594,0)"><g transform="scale(1)"><path d="M6.75-9.56L6.75-9.56Q7.92-9.52 8.11-9.38L8.11-9.38Q8.11-9.33 8.02-9.23L8.02-9.23Q7.88-9 7.88-8.72L7.88-8.72L7.88-6L8.95-6Q9.98-6.05 10.88-6.09L10.88-6.09L10.88-5.02Q10.36-5.06 9-5.06L9-5.06L7.88-5.06L7.88-0.23L9.19-0.23Q10.45-0.28 11.34-0.33L11.34-0.33L11.34 0.75Q9.89 0.61 9.23 0.61L9.23 0.61L5.72 0.61Q4.55 0.66 3.84 0.70L3.84 0.70L3.84-0.28Q4.08-0.28 4.73-0.28L4.73-0.28Q5.44-0.23 5.72-0.23L5.72-0.23L6.84-0.23L6.84-8.25Q6.84-8.91 6.75-9.56ZM1.64-8.81L2.67-9.33Q3.52-8.11 3.94-7.27L3.94-7.27L2.77-6.75Q2.34-7.83 1.64-8.81L1.64-8.81ZM2.72 0.70L2.72 0.70L1.97-0.09Q2.20-0.42 2.20-1.17L2.20-1.17L2.20-5.02Q0.84-5.02 0.42-4.92L0.42-4.92L0.42-6Q1.50-5.86 3.23-5.95L3.23-5.95Q3.28-5.95 3.28-5.91L3.28-5.91Q3.28-5.91 3.28-5.86L3.28-5.86Q3.28-5.72 3.28-5.25L3.28-5.25Q3.23-4.59 3.23-4.31L3.23-4.31L3.23-1.03Q3.98-1.88 4.59-2.63L4.59-2.63Q4.69-2.02 5.02-1.55L5.02-1.55Q3.61-0.28 2.72 0.70ZM15.42-9.75L15.42-9.75Q15.56-9.70 15.84-9.66L15.84-9.66Q16.78-9.47 16.73-9.38L16.73-9.38Q16.73-9.28 16.59-9.19L16.59-9.19Q16.22-8.95 15.94-8.58L15.94-8.58L20.77-8.58Q22.27-8.58 22.73-8.67L22.73-8.67L22.73-7.64Q21.70-7.73 20.77-7.73L20.77-7.73L15.42-7.73Q15.42-7.78 14.91-7.08L14.91-7.08Q15-7.17 14.81-6.94L14.81-6.94Q15.23-6.84 15.98-6.84L15.98-6.84L20.72-6.84Q21.28-6.84 21.80-6.94L21.80-6.94Q21.70-6.70 21.70-5.86L21.70-5.86L21.66-4.13L22.03-4.13Q22.92-4.13 23.30-4.22L23.30-4.22L23.30-3.19Q22.78-3.28 22.03-3.28L22.03-3.28L21.66-3.28L21.56-1.31Q22.31-1.31 22.73-1.41L22.73-1.41L22.73-0.38Q22.17-0.47 21.52-0.47L21.52-0.47Q21.56 1.17 19.36 1.17L19.36 1.17Q19.27 0.52 18.94 0.05L18.94 0.05Q20.48 0.33 20.48-0.47L20.48-0.47L15.23-0.47Q14.91-0.47 14.48-0.42L14.48-0.42Q14.20-0.42 14.16-0.42L14.16-0.42Q14.16-0.42 14.20-0.75L14.20-0.75Q14.30-1.27 14.34-1.50L14.34-1.50L14.53-3.28L13.83-3.28Q13.22-3.28 12.61-3.19L12.61-3.19L12.61-4.22Q13.31-4.13 13.83-4.13L13.83-4.13L14.58-4.13L14.67-5.67Q14.67-6.47 14.63-6.70L14.63-6.70Q14.30-6.28 13.78-5.67L13.78-5.67Q14.02-5.95 13.59-5.48L13.59-5.48Q13.27-5.77 12.56-5.95L12.56-5.95Q14.39-7.27 15.42-9.75ZM20.67-6L15.70-6L15.56-4.13L20.63-4.13L20.67-6ZM20.63-3.28L15.52-3.28L15.33-1.31L20.53-1.31L20.63-3.28ZM16.83-2.48L17.58-3.05Q18.14-2.63 18.80-1.97L18.80-1.97L18-1.45Q17.34-2.16 16.83-2.48L16.83-2.48ZM17.06-5.30L17.06-5.30L17.81-5.86Q18.28-5.53 18.98-4.73L18.98-4.73L18.19-4.22Q17.67-4.88 17.06-5.30ZM29.39-9.80L29.39-9.80Q30.38-9.52 30.61-9.38L30.61-9.38Q30.61-9.28 30.47-9.23L30.47-9.23Q30.33-9.14 30.28-9.05L30.28-9.05Q31.73-6.09 35.44-5.25L35.44-5.25Q34.92-4.92 34.45-4.13L34.45-4.13Q30.98-5.77 29.77-8.34L29.77-8.34Q28.55-5.95 25.36-3.80L25.36-3.80Q24.84-4.41 24.33-4.64L24.33-4.64Q28.17-6.33 29.39-9.80ZM29.16-5.95L29.16-5.95Q29.25-5.95 29.39-5.95L29.39-5.95Q30.61-5.86 30.56-5.81L30.56-5.81Q30.56-5.77 30.52-5.72L30.52-5.72Q30.33-5.30 30.33-4.83L30.33-4.83L30.33-0.47Q30.33 0.66 30.42 1.22L30.42 1.22L29.16 1.22Q29.25 0.56 29.25-0.47L29.25-0.47L29.25-4.55Q29.25-5.06 29.20-5.58L29.20-5.58Q29.16-5.86 29.16-5.95ZM41.25-9.66L41.25-9.66Q41.39-9.66 41.67-9.61L41.67-9.61Q42.89-9.52 42.80-9.42L42.80-9.42Q42.80-9.38 42.70-9.23L42.70-9.23Q42.42-8.95 42.42-8.44L42.42-8.44L42.42-6.94Q42.94-1.88 47.58-0.23L47.58-0.23Q47.58-0.23 47.48-0.19L47.48-0.19Q46.92 0.05 46.45 0.84L46.45 0.84Q42.52-1.31 41.95-5.39L41.95-5.39Q41.53-1.55 37.73 1.13L37.73 1.13Q37.31 0.70 36.70 0.38L36.70 0.38Q36.56 0.28 36.56 0.28L36.56 0.28Q38.95-0.70 40.31-3.14L40.31-3.14Q41.58-5.63 41.25-9.66ZM54.33-9.52L54.33-9.52Q55.41-9.52 55.73-9.38L55.73-9.38Q55.73-9.33 55.69-9.19L55.69-9.19Q55.50-8.77 55.55-8.11L55.55-8.11L57.05-8.11Q56.86-8.30 56.39-8.63L56.39-8.63Q56.25-8.77 56.16-8.81L56.16-8.81L56.86-9.42Q57.38-9.23 57.89-8.72L57.89-8.72L57.19-8.11Q57.66-8.11 58.50-8.16L58.50-8.16Q58.83-8.16 58.92-8.16L58.92-8.16L58.92-7.27Q58.73-7.31 57.28-7.31L57.28-7.31L55.59-7.31Q55.73-5.91 56.30-4.31L56.30-4.31Q56.91-5.63 57.05-6.80L57.05-6.80Q58.17-6.52 58.17-6.42L58.17-6.42Q58.17-6.38 58.08-6.28L58.08-6.28Q57.94-6.09 57.84-5.86L57.84-5.86Q57.38-4.59 56.81-3.66L56.81-3.66Q57.70-2.67 57.94-2.77L57.94-2.77Q58.13-2.81 58.27-3.80L58.27-3.80Q58.83-3.38 59.16-3.19L59.16-3.19Q58.83-1.92 58.27-1.73L58.27-1.73Q57.47-1.64 56.20-2.95L56.20-2.95L54.98-1.78L54.23-2.39Q55.08-2.86 55.73-3.66L55.73-3.66Q55.08-4.78 54.66-7.31L54.66-7.31L50.67-7.31Q50.72-3.19 49.59-1.64L49.59-1.64L48.56-2.16Q50.11-3.52 49.73-8.16L49.73-8.16Q50.16-8.11 51.61-8.11L51.61-8.11L54.56-8.11Q54.56-8.67 54.33-9.52ZM51.19-5.77L51.19-6.61Q51.61-6.56 52.41-6.56L52.41-6.56L52.92-6.56Q54.05-6.56 54.33-6.61L54.33-6.61L54.33-5.72Q53.91-5.77 52.92-5.77L52.92-5.77L52.45-5.77Q51.70-5.77 51.19-5.77L51.19-5.77ZM53.44-3.38L53.44-4.27L51.98-4.27L51.98-3.38L53.44-3.38ZM53.25-1.69L54.14-2.11Q54.61-1.55 55.03-0.84L55.03-0.84L54.09-0.38Q53.67-1.17 53.25-1.69L53.25-1.69ZM51.61-1.88L51.61-1.88Q52.78-1.88 52.83-1.69L52.83-1.69Q52.83-1.64 52.78-1.55L52.78-1.55Q52.59-1.22 52.59-0.66L52.59-0.66Q52.55 0.19 53.16 0.05L53.16 0.05L54.98 0.05Q55.83 0.19 55.88-0.98L55.88-0.98Q56.44-0.56 56.91-0.42L56.91-0.42Q56.48 1.17 55.27 0.94L55.27 0.94Q53.81 0.94 52.78 0.89L52.78 0.89Q51.61 0.94 51.70 0L51.70 0L51.70-1.03Q51.70-1.45 51.61-1.88ZM50.06-1.69L50.06-1.69L51.19-1.27Q50.67-0.09 49.97 0.84L49.97 0.84Q49.59 0.61 48.89 0.47L48.89 0.47Q49.55-0.33 50.06-1.69ZM56.67-1.17L57.52-1.69Q58.59-0.75 59.06 0L59.06 0L58.08 0.56Q57.56-0.28 56.67-1.17L56.67-1.17ZM51.14-5.11L51.14-5.11Q51.14-5.11 51.94-5.06L51.94-5.06L53.53-5.06Q53.91-5.06 54.33-5.11L54.33-5.11Q54.28-4.73 54.28-4.27L54.28-4.27L54.28-3.33Q54.33-2.58 54.33-2.58L54.33-2.58Q53.91-2.63 53.48-2.63L53.48-2.63L51.94-2.63Q51.47-2.63 51.09-2.53L51.09-2.53Q51.19-2.86 51.19-3.14L51.19-3.14L51.19-4.36Q51.19-5.11 51.14-5.11ZM69.94-9.56L69.94-9.56Q70.73-8.63 70.69-8.34L70.69-8.34Q70.69-8.30 70.55-8.34L70.55-8.34Q70.03-8.44 69.38-8.39L69.38-8.39Q66.28-8.06 61.69-7.88L61.69-7.88Q61.31-8.67 61.03-8.95L61.03-8.95Q63.09-8.77 66-8.95L66-8.95Q68.72-9.14 69.94-9.56ZM68.67-7.97L68.67-7.97Q69.80-7.59 69.94-7.41L69.94-7.41Q69.94-7.36 69.80-7.27L69.80-7.27Q69.14-6.80 68.39-5.77L68.39-5.77L69.70-5.77Q70.17-5.77 70.78-5.81L70.78-5.81Q70.92-5.81 70.97-5.81L70.97-5.81Q70.92-5.34 70.92-4.78L70.92-4.78Q70.92-4.03 71.02-3.52L71.02-3.52Q71.02-3.42 71.02-3.42L71.02-3.42L69.80-3.42Q69.89-4.03 69.89-4.97L69.89-4.97L62.11-4.97Q62.11-4.03 62.20-3.52L62.20-3.52L60.98-3.52Q60.98-3.56 60.98-3.66L60.98-3.66Q61.08-4.03 61.08-4.69L61.08-4.69Q61.08-5.67 61.03-5.86L61.03-5.86Q61.17-5.77 62.34-5.77L62.34-5.77L67.41-5.77Q68.39-6.94 68.67-7.97ZM65.06-7.55L66.05-7.88Q66.33-7.45 66.75-6.52L66.75-6.52L65.77-6.14Q65.44-7.08 65.06-7.55L65.06-7.55ZM62.44-7.36L63.42-7.64Q63.84-7.08 64.22-6.23L64.22-6.23L63.19-5.95Q63-6.66 62.44-7.36L62.44-7.36ZM62.81-3.05L62.81-3.98Q62.86-3.98 63-3.98L63-3.98Q63.56-3.89 64.17-3.89L64.17-3.89L67.45-3.89Q68.86-3.89 69.05-3.98L69.05-3.98Q68.06-1.78 66.89-0.75L66.89-0.75Q68.02-0.14 71.30-0.23L71.30-0.23Q70.83 0.33 70.69 0.94L70.69 0.94Q67.55 0.56 65.95-0.14L65.95-0.14Q64.55 0.47 61.45 1.03L61.45 1.03Q61.27 0.38 60.70-0.05L60.70-0.05Q63-0.05 65.16-0.80L65.16-0.80Q64.27-1.69 63.61-3.09L63.61-3.09Q63.28-3.09 62.95-3.05L62.95-3.05Q62.86-3.05 62.81-3.05L62.81-3.05ZM67.55-3.09L64.55-3.09Q65.06-1.92 66.05-1.22L66.05-1.22Q66.80-1.88 67.45-2.91L67.45-2.91Q67.50-3.05 67.55-3.09L67.55-3.09ZM81.56-9.47L81.56-9.47Q82.92-9.47 82.92-9.28L82.92-9.28Q82.92-9.19 82.88-9.05L82.88-9.05Q82.73-8.72 82.73-8.39L82.73-8.39L82.73-0.23Q82.78 0.42 82.41 0.61L82.41 0.61Q82.13 0.80 80.58 0.98L80.58 0.98Q80.48 0.33 80.11-0.14L80.11-0.14Q81.98 0 81.66-0.80L81.66-0.80L81.66-7.78Q81.66-8.67 81.56-9.33L81.56-9.33Q81.56-9.47 81.56-9.47ZM73.08-7.83L73.08-8.86Q73.08-8.86 73.17-8.86L73.17-8.86Q73.83-8.77 74.77-8.77L74.77-8.77L77.02-8.77Q78-8.77 78.70-8.86L78.70-8.86Q78.80-8.86 78.84-8.86L78.84-8.86L78.84-7.83Q78.80-7.83 78.66-7.83L78.66-7.83Q77.91-7.92 77.02-7.92L77.02-7.92L75.42-7.92Q76.27-7.59 76.41-7.36L76.41-7.36Q76.41-7.31 76.22-7.22L76.22-7.22Q76.03-7.13 75.98-7.08L75.98-7.08Q75.09-6.09 74.20-5.30L74.20-5.30L77.58-5.58Q77.16-6.33 76.73-6.80L76.73-6.80L77.53-7.17Q78.23-6.61 79.17-4.73L79.17-4.73L78.23-4.17Q78.09-4.64 77.91-4.97L77.91-4.97L76.27-4.78L76.27-3.09L77.20-3.09Q77.72-3.09 78.28-3.19L78.28-3.19Q78.42-3.19 78.47-3.19L78.47-3.19L78.47-2.20Q78.42-2.20 78.33-2.20L78.33-2.20Q77.72-2.30 77.20-2.30L77.20-2.30L76.27-2.30L76.27-0.84L78.89-1.22L78.84-0.23L72.98 0.56L72.75-0.52L75.33-0.75L75.33-2.30L74.39-2.30Q73.78-2.30 73.31-2.20L73.31-2.20Q73.22-2.20 73.17-2.20L73.17-2.20L73.17-3.19Q73.22-3.19 73.31-3.19L73.31-3.19Q73.88-3.09 74.39-3.09L74.39-3.09L75.33-3.09L75.33-4.69Q74.11-4.59 73.45-4.45L73.45-4.45Q73.36-4.41 73.31-4.41L73.31-4.41L72.89-5.39Q72.94-5.44 73.13-5.48L73.13-5.48Q73.78-5.77 74.06-6.09L74.06-6.09Q74.91-7.13 75.14-7.92L75.14-7.92L74.81-7.92Q74.06-7.92 73.31-7.83L73.31-7.83Q73.13-7.83 73.08-7.83L73.08-7.83ZM79.59-8.02L79.59-8.02Q80.53-7.97 80.77-7.83L80.77-7.83Q80.77-7.78 80.72-7.69L80.72-7.69Q80.58-7.41 80.58-6.94L80.58-6.94L80.58-3.19Q80.58-2.16 80.67-1.55L80.67-1.55Q80.67-1.45 80.67-1.45L80.67-1.45L79.59-1.45Q79.59-1.50 79.59-1.69L79.59-1.69Q79.69-2.39 79.69-3.19L79.69-3.19L79.69-6.61Q79.69-7.45 79.59-8.02ZM94.55-8.91L94.55-8.91L94.55-7.88Q94.50-7.88 94.31-7.88L94.31-7.88Q93.38-7.97 92.53-7.97L92.53-7.97L92.30-7.97L92.30-4.83L93.19-4.83Q94.50-4.83 95.16-4.92L95.16-4.92Q95.25-4.92 95.30-4.92L95.30-4.92L95.30-3.84Q95.25-3.84 95.16-3.84L95.16-3.84Q94.36-3.94 93.23-3.94L93.23-3.94L92.30-3.94L92.30-0.66Q92.30 0.19 92.39 0.80L92.39 0.80Q92.39 0.89 92.39 0.94L92.39 0.94L91.22 0.94Q91.22 0.94 91.22 0.84L91.22 0.84Q91.31 0.19 91.31-0.66L91.31-0.66L91.31-3.94L89.06-3.94Q88.73-0.75 85.97 0.89L85.97 0.89Q85.64 0.47 84.84 0L84.84 0Q87.56-0.56 88.08-3.94L88.08-3.94L86.77-3.94Q85.73-3.94 84.89-3.84L84.89-3.84Q84.75-3.84 84.75-3.84L84.75-3.84L84.75-4.92Q84.75-4.92 84.89-4.92L84.89-4.92Q85.73-4.83 86.72-4.83L86.72-4.83L88.13-4.83Q88.17-5.58 88.13-7.97L88.13-7.97L87.61-7.97Q86.67-7.97 85.78-7.88L85.78-7.88Q85.64-7.88 85.64-7.88L85.64-7.88L85.64-8.91Q85.64-8.91 85.78-8.91L85.78-8.91Q86.72-8.81 87.66-8.81L87.66-8.81L92.53-8.81Q93.42-8.81 94.27-8.91L94.27-8.91Q94.45-8.91 94.55-8.91ZM91.31-7.97L89.11-7.97Q89.11-8.11 89.11-7.45L89.11-7.45Q89.11-5.81 89.06-4.83L89.06-4.83L91.31-4.83L91.31-7.97ZM97.36-9.47L97.36-9.47L98.63-9.38L99.66-9.38L101.02-9.47Q100.92-9.28 100.92-8.16L100.92-8.16L100.92 0.05Q101.06 0.75 99.28 0.84L99.28 0.84Q99.14 0.05 98.81-0.33L98.81-0.33Q100.22 0 100.08-0.61L100.08-0.61L100.08-3.23L98.30-3.23Q98.25-0.89 97.17 1.03L97.17 1.03Q96.70 0.33 96.47 0.05L96.47 0.05Q97.41-1.31 97.45-3.70L97.45-3.70L97.45-8.16Q97.45-9 97.36-9.47ZM106.45-9.47L106.45-9.47Q106.41-8.39 106.22-7.03L106.22-7.03Q106.17-6.05 104.25-6.05L104.25-6.05Q104.06-6.84 103.73-7.27L103.73-7.27Q104.34-7.08 104.95-7.17L104.95-7.17Q105.38-7.08 105.38-8.48L105.38-8.48L102.89-8.48L102.89-5.44L105.47-5.44Q106.03-5.44 106.73-5.53L106.73-5.53Q106.08-2.44 105.42-1.59L105.42-1.59Q106.36-0.66 107.67-0.28L107.67-0.28L106.83 0.70Q105.70 0 104.91-0.80L104.91-0.80Q104.81-0.66 104.63-0.47L104.63-0.47Q103.92 0.33 103.55 0.70L103.55 0.70L102.94-0.14Q103.88-0.80 104.30-1.55L104.30-1.55Q103.45-3.14 103.22-4.55L103.22-4.55L102.89-4.55L102.89-0.66Q102.89 0.05 102.98 0.80L102.98 0.80Q102.98 0.70 102.98 0.89L102.98 0.89L101.95 0.89Q101.95 0.70 102 0.28L102 0.28Q102.05-0.28 102.05-0.66L102.05-0.66L102.05-8.20Q102.05-8.77 101.95-9.33L101.95-9.33Q101.95-9.42 101.95-9.47L101.95-9.47L103.22-9.38L105.38-9.38Q104.86-9.38 106.45-9.47ZM100.08-8.58L98.30-8.58L98.30-6.70L100.08-6.70L100.08-8.58ZM100.08-3.94L100.08-5.95L98.30-5.95L98.30-3.94L100.08-3.94ZM105.61-4.55L104.11-4.55Q104.30-3.42 104.86-2.30L104.86-2.30Q105.38-3.23 105.61-4.55L105.61-4.55ZM115.41-9.75L115.41-9.75Q116.67-9.38 116.67-9.23L116.67-9.23Q116.67-9.19 116.58-9.14L116.58-9.14Q116.39-9.05 116.34-8.86L116.34-8.86Q115.92-8.16 115.69-7.41L115.69-7.41L117.42-7.41Q118.45-7.41 119.02-7.45L119.02-7.45Q118.64-1.31 118.55-0.23L118.55-0.23Q118.41 1.08 115.97 1.17L115.97 1.17Q115.83 0.47 115.41-0.05L115.41-0.05Q116.67 0.19 117.33-0.09L117.33-0.09Q117.66-0.05 117.80-4.27L117.80-4.27Q117.89-5.77 117.94-6.66L117.94-6.66L115.36-6.66Q114.89-5.77 114.23-4.59L114.23-4.59Q113.81-4.88 113.39-4.97L113.39-4.97L113.39-0.75Q113.39 0.42 113.44 0.75L113.44 0.75L112.36 0.75Q112.41 0.33 112.41-0.38L112.41-0.38L110.11-0.38Q110.11 0.33 110.16 0.84L110.16 0.84L109.08 0.84Q109.13 0.42 109.13-0.70L109.13-0.70L109.13-5.72Q109.13-5.91 109.08-6.61L109.08-6.61Q109.08-7.22 109.08-7.36L109.08-7.36Q109.78-7.31 110.11-7.31L110.11-7.31L110.44-7.31Q110.58-8.06 110.67-9.61L110.67-9.61Q111.98-9.47 111.89-9.28L111.89-9.28Q111.89-9.19 111.80-9.09L111.80-9.09Q111.70-9 111.66-8.86L111.66-8.86Q111.52-8.53 111.38-7.92L111.38-7.92Q111.28-7.55 111.23-7.31L111.23-7.31L112.03-7.31Q112.41-7.31 113.44-7.36L113.44-7.36Q113.39-7.03 113.39-5.86L113.39-5.86L113.39-5.20Q114.84-6.84 115.41-9.75ZM112.41-6.56L110.11-6.56L110.11-4.13L112.41-4.13L112.41-6.56ZM114.61-4.17L115.41-4.64Q115.69-4.27 116.39-2.91L116.39-2.91Q116.58-2.63 116.63-2.48L116.63-2.48L115.73-2.02Q115.59-2.58 114.61-4.17L114.61-4.17ZM112.41-3.42L110.11-3.42L110.11-1.13L112.41-1.13L112.41-3.42ZM126.56-9.75L126.56-9.75Q127.97-9.56 128.02-9.42L128.02-9.42Q128.02-9.33 127.92-9.19L127.92-9.19Q127.59-8.95 127.41-8.53L127.41-8.53Q127.36-8.39 127.27-8.06L127.27-8.06Q127.17-7.73 127.08-7.59L127.08-7.59L129.98-7.59Q130.55-7.59 131.30-7.69L131.30-7.69Q131.25-7.59 131.11-7.17L131.11-7.17Q130.50-5.48 130.27-4.92L130.27-4.92L129.09-5.06Q129.33-5.39 129.75-6.33L129.75-6.33Q129.89-6.66 129.94-6.75L129.94-6.75L126.89-6.75Q126.80-6.66 126.52-6.05L126.52-6.05Q126.09-5.06 125.77-4.45L125.77-4.45L124.64-4.83Q126.19-6.80 126.56-9.75ZM120.75-7.31L120.75-8.34Q120.98-8.25 122.11-8.25L122.11-8.25L123.70-8.25Q124.22-8.25 125.11-8.34L125.11-8.34Q125.06-8.16 124.88-7.45L124.88-7.45Q124.41-5.25 123.89-3.75L123.89-3.75L125.48-1.45L124.50-0.89Q124.31-1.27 123.70-2.34L123.70-2.34Q123.52-2.67 123.47-2.77L123.47-2.77Q122.53-0.75 121.36 0.47L121.36 0.47Q121.03 0.05 120.33-0.19L120.33-0.19Q121.45-0.70 122.81-3.61L122.81-3.61Q121.50-5.44 120.89-5.81L120.89-5.81L121.92-6.42Q122.02-6.23 122.53-5.58L122.53-5.58Q123.05-4.92 123.23-4.64L123.23-4.64Q123.47-5.25 123.84-7.36L123.84-7.36L122.11-7.36Q121.03-7.36 120.80-7.31L120.80-7.31Q120.75-7.31 120.75-7.31L120.75-7.31ZM127.13-6.05L127.13-6.05Q127.27-6.05 127.55-6.05L127.55-6.05Q128.63-6 128.58-5.86L128.58-5.86Q128.58-5.77 128.48-5.63L128.48-5.63Q128.25-5.16 128.30-4.50L128.30-4.50Q128.72-0.94 131.63-0.23L131.63-0.23Q131.06 0.09 130.69 0.84L130.69 0.84Q128.25-0.42 127.88-2.91L127.88-2.91Q127.69-0.38 124.59 1.22L124.59 1.22Q124.17 0.61 123.47 0.28L123.47 0.28Q125.53-0.23 126.56-1.78L126.56-1.78Q127.55-3.80 127.13-6.05ZM141.33-9.66L141.33-9.66Q141.38-9.61 141.47-9.42L141.47-9.42Q142.08-8.48 141.98-8.39L141.98-8.39Q141.94-8.34 141.75-8.34L141.75-8.34Q141.19-8.44 140.44-8.34L140.44-8.34Q140.39-8.34 140.25-8.34L140.25-8.34Q136.55-8.11 135.19-8.11L135.19-8.11Q134.81-5.39 134.81-5.39L134.81-5.39L137.77-5.39L137.77-6.38Q137.77-7.41 137.67-7.69L137.67-7.69Q137.72-7.69 137.81-7.69L137.81-7.69Q139.08-7.59 139.03-7.45L139.03-7.45Q139.03-7.41 138.94-7.27L138.94-7.27Q138.75-7.03 138.75-6.66L138.75-6.66L138.75-5.39L141.19-5.39Q142.41-5.39 142.64-5.48L142.64-5.48L142.64-4.41Q142.36-4.59 141.19-4.59L141.19-4.59L138.75-4.59L138.75-0.19Q138.94 1.13 136.88 1.08L136.88 1.08Q136.69 0.33 136.22-0.23L136.22-0.23Q137.91 0.23 137.77-0.80L137.77-0.80L137.77-4.59L135.42-4.59Q134.91-4.59 133.97-4.36L133.97-4.36L133.64-5.20Q133.88-5.30 134.02-5.81L134.02-5.81Q134.34-7.13 134.25-9.05L134.25-9.05Q136.03-8.91 138.28-9.09L138.28-9.09Q140.34-9.28 141.33-9.66ZM135.61-3.70L135.61-3.70L136.78-2.95Q134.77-0.80 133.69 0L133.69 0Q133.17-0.38 132.56-0.61L132.56-0.61Q134.53-1.69 135.61-3.70ZM139.55-3L140.34-3.61Q141.89-2.44 143.20-0.94L143.20-0.94L142.08-0.28Q141.23-1.69 139.55-3L139.55-3Z" transform="translate(-0.421875, 9.796875)"></path></g></g></g></g></g></svg>